<svg width="66" height="49" viewBox="0 0 66 49" fill="none" xmlns="http://www.w3.org/2000/svg">
<path d="M31.1675 43.8221L31.1661 43.8209C24.0914 37.7019 18.3017 32.6865 14.269 27.9807C10.2455 23.2856 8.08887 19.0303 8.08887 14.4494C8.08887 6.97269 14.2245 1.07788 22.1563 1.07788C25.9873 1.07788 29.7167 3.67397 32.6018 6.59975C33.5524 7.56374 35.1103 7.55963 36.0622 6.61076C38.988 3.69425 42.9646 1.07788 46.8121 1.07788C54.7439 1.07788 60.8796 6.97269 60.8796 14.4494C60.8796 19.0303 58.7229 23.2856 54.6995 27.9807C50.6667 32.6865 44.877 37.7019 37.8024 43.8209L37.8009 43.8221C35.8983 45.4741 33.0701 45.4741 31.1675 43.8221Z" stroke="#CDAA64" stroke-width="2"/>
<path d="M2 30.5523H18.7474C18.929 30.5523 19.0925 30.4422 19.1607 30.2738L22.6075 21.7668C22.7598 21.3911 23.2937 21.397 23.4377 21.7759L28.3107 34.6035C28.4645 35.0082 29.0467 34.9785 29.1585 34.5602L34.3338 15.1896C34.4497 14.7557 35.0619 14.746 35.1916 15.176L41.0724 34.6796C41.1941 35.0831 41.7559 35.1082 41.9131 34.7173L47.072 21.8918C47.2292 21.5009 47.7909 21.526 47.9126 21.9294L50.4187 30.2352C50.4755 30.4235 50.6489 30.5523 50.8456 30.5523H64" stroke="#CDAA64" stroke-width="3" stroke-linecap="round"/>
</svg>
