<svg width="79" height="72" viewBox="0 0 79 72" fill="none" xmlns="http://www.w3.org/2000/svg">
<path d="M10.118 0.274416C8.95945 0.87688 8.34154 1.88099 8.34154 3.1477C8.34154 3.84285 8.40333 4.05912 8.74319 4.39898C9.3302 4.97054 10.4424 4.97054 11.014 4.39898C11.2303 4.18271 11.4311 3.8583 11.462 3.67293C11.5083 3.36397 11.601 3.33308 12.8677 3.28673L14.2117 3.24039L14.1808 6.68525L14.1345 10.1301L12.8523 10.1764L11.5856 10.2228L11.4929 9.74391C11.3539 9.06421 10.6278 8.50809 9.85543 8.50809C8.01714 8.50809 7.76997 11.1342 9.48468 12.6481C10.2107 13.2815 11.2921 13.4977 13.3775 13.4359C14.876 13.3741 15.1386 13.3278 15.7874 12.9416C16.8996 12.2928 17.3167 11.4586 17.4248 9.74391L17.5021 8.36906L21.6575 8.32271L25.8284 8.27637L26.2764 7.76659C26.9098 7.07144 26.9098 6.19092 26.2764 5.55756L25.8284 5.10957H21.6421H17.4557V4.05912C17.4557 2.1127 16.8533 0.938671 15.4939 0.258968C14.7833 -0.0963307 10.7977 -0.0808829 10.118 0.274416Z" fill="white"/>
<path d="M25.3805 0.258952C24.3301 0.784177 23.4805 2.09724 23.4805 3.22493C23.4805 3.70381 23.8821 4.4453 24.2374 4.64612C24.4073 4.72336 24.8244 4.8006 25.1797 4.8006C25.6895 4.8006 25.9212 4.70791 26.2765 4.35262C26.5237 4.10545 26.7245 3.75015 26.7245 3.58023C26.7245 3.27127 26.8172 3.25582 28.0376 3.25582H29.3506V6.73157V10.2073H28.0376C26.7245 10.2073 26.7245 10.2073 26.7245 9.80568C26.7245 9.20322 25.9521 8.50807 25.2724 8.50807C24.4846 8.50807 23.9902 8.78613 23.6967 9.40404C23.1715 10.5008 23.8667 12.2001 25.1488 12.9416C25.7976 13.3278 26.0602 13.3741 27.5587 13.4359C29.6287 13.4977 30.6328 13.2969 31.4206 12.6481C32.2857 11.9375 32.5947 11.1651 32.5947 9.62031V8.35359H36.5338C40.9056 8.35359 41.3536 8.27635 41.7706 7.44217C42.1877 6.65434 42.0333 5.94374 41.3381 5.38762C41.0446 5.14045 40.5657 5.10956 36.8119 5.10956H32.6256L32.5638 3.58023C32.5174 2.15903 32.4865 1.9891 32.054 1.37119C31.7914 1.01589 31.297 0.55246 30.9726 0.367087C30.4165 0.0426833 30.1539 0.0117877 28.1148 0.0117877C26.3692 0.0117877 25.7667 0.0735788 25.3805 0.258952Z" fill="white"/>
<path d="M40.4577 0.367021C39.4691 0.892246 38.8821 1.80367 38.8048 2.9468C38.743 3.79643 38.7739 3.88912 39.2065 4.3371C40.1024 5.23307 41.6472 4.84688 41.9562 3.6574C42.0489 3.2712 42.0798 3.25576 43.3465 3.25576H44.6441V6.73151V10.2073H43.331C42.4814 10.2073 42.018 10.1455 42.018 10.0373C42.018 9.63569 41.5082 8.84786 41.1529 8.67793C40.4423 8.36897 39.7162 8.46166 39.2219 8.95599C38.8512 9.34218 38.7739 9.54301 38.7739 10.1609C38.7894 11.6285 39.7935 12.9261 41.1838 13.2814C42.018 13.4976 44.6904 13.4976 45.4319 13.2968C46.3742 13.0342 47.0076 12.4935 47.471 11.613C47.8263 10.9024 47.8881 10.578 47.8881 9.55845V8.35353H51.8119C53.9745 8.35353 55.921 8.29174 56.1218 8.2145C57.234 7.78196 57.543 6.39166 56.7088 5.55748L56.2608 5.10949H52.0745H47.8881V3.82733C47.8881 2.40613 47.6101 1.61829 46.8686 0.876798C46.1116 0.135304 45.6327 0.0117219 43.2847 0.0117219C41.3383 0.0117219 41.0756 0.0426175 40.4577 0.367021Z" fill="white"/>
<path d="M55.8437 0.274369C54.4998 0.969519 53.7428 2.4834 54.0673 3.73467C54.2681 4.44527 54.7933 4.80057 55.6429 4.80057C56.3999 4.80057 57.1568 4.21355 57.1568 3.61109C57.1568 3.27124 57.2032 3.25579 58.5471 3.25579H59.9374L59.9065 6.6852L59.8602 10.1301H58.5626H57.2495L57.1259 9.63573C56.8479 8.53893 55.4576 8.13729 54.5616 8.89423C53.403 9.86744 54.0981 12.1692 55.8283 13.1115C56.5234 13.4977 60.5708 13.4977 61.2659 13.1115C62.5481 12.4009 63.1814 11.1187 63.1814 9.20319V8.35356H65.097C66.9353 8.35356 67.0434 8.36901 67.4914 8.7552C67.754 8.97147 68.032 9.40401 68.1247 9.71297C68.202 10.0219 68.2792 11.7675 68.2792 13.5595V16.8498H35.6844H3.08956V13.6367C3.10501 9.97558 3.19769 9.37311 3.86195 8.77065L4.32538 8.35356H7.18322C10.9525 8.35356 11.4777 8.13729 11.4777 6.59251C11.4777 6.09818 11.385 5.89736 10.9679 5.52662L10.4736 5.09408L6.9824 5.14042C3.66113 5.18676 3.44486 5.20221 2.8115 5.54206C1.7456 6.11363 0.849628 7.02505 0.401642 8.02916L0 8.94058L0.0308956 34.4758L0.0772389 60.0264L0.432538 60.7525C0.926867 61.7566 1.88463 62.6834 2.90418 63.1623L3.78471 63.5794L26.0295 63.6257C42.5741 63.6566 48.3825 63.6103 48.7069 63.4867C49.3093 63.2241 49.5874 62.7607 49.5874 61.9883C49.5874 61.4476 49.4947 61.2313 49.1394 60.8606L48.6914 60.4126H26.6938C5.17501 60.4126 4.69613 60.4126 4.21725 60.1036C3.93919 59.9492 3.59933 59.6248 3.44486 59.3776C3.18224 58.976 3.1668 57.9564 3.12045 39.5272L3.08956 20.0939H35.6844H68.2792V31.309C68.2792 38.693 68.341 42.6168 68.4337 42.8176C68.6345 43.1729 69.376 43.5745 69.8549 43.5745C70.4728 43.5745 71.1834 43.0184 71.3688 42.385C71.4924 41.9679 71.5232 37.0864 71.4924 25.4234C71.446 9.96013 71.4306 9.00237 71.168 8.32267C70.7818 7.34945 69.6695 6.11363 68.6809 5.60386C67.9394 5.21766 67.7385 5.18676 65.5604 5.14042L63.2278 5.07863L63.1351 3.71923C63.0115 1.81915 62.5017 0.907728 61.2196 0.258921C60.509 -0.096378 56.5234 -0.0809302 55.8437 0.274369Z" fill="white"/>
<path d="M9.1762 27.5089C8.29568 27.8642 8.04852 29.3009 8.71277 30.0887L9.08352 30.5212H12.8064H16.5294L16.9464 30.0887C17.2863 29.7489 17.379 29.5171 17.379 28.961C17.379 28.3586 17.3017 28.1886 16.8692 27.8024L16.3749 27.3544L12.93 27.3699C11.0454 27.3699 9.34613 27.4317 9.1762 27.5089Z" fill="white"/>
<path d="M24.0674 27.8023C23.6349 28.1885 23.5576 28.3585 23.5576 28.9764C23.5576 29.5943 23.6349 29.7642 24.0674 30.1504L24.5617 30.5984H27.9757C30.7099 30.5984 31.4669 30.552 31.8222 30.3667C32.3938 30.0732 32.5946 29.7024 32.5946 28.9764C32.5946 28.2503 32.3938 27.8796 31.8222 27.5861C31.4669 27.4007 30.7099 27.3544 27.9757 27.3544H24.5617L24.0674 27.8023Z" fill="white"/>
<path d="M39.5155 27.6015C38.4342 28.1731 38.5269 29.8414 39.6546 30.4285C39.8708 30.5366 41.1994 30.5984 43.4084 30.5984H46.8378L47.363 30.0732C47.7647 29.6715 47.8882 29.4244 47.8882 28.9764C47.8882 28.5284 47.7647 28.2812 47.363 27.8796L46.8378 27.3544H43.3929C40.6432 27.3698 39.8399 27.4161 39.5155 27.6015Z" fill="white"/>
<path d="M54.6544 27.6633C54.4227 27.8332 54.1601 28.2194 54.0674 28.5129C53.9129 28.9763 53.9284 29.1463 54.1756 29.6251C54.6235 30.5675 54.8089 30.6138 58.7327 30.5675C62.0385 30.5211 62.2702 30.5057 62.5637 30.2122C63.228 29.5479 63.2125 28.3275 62.5483 27.7251C62.2548 27.4625 61.9149 27.4316 58.64 27.3852C55.2106 27.3389 55.0406 27.3543 54.6544 27.6633Z" fill="white"/>
<path d="M8.78978 39.0792C8.43448 39.4345 8.3418 39.6662 8.3418 40.176C8.3418 41.7362 8.72799 41.8752 12.8062 41.8752C14.5827 41.8752 16.2202 41.8135 16.4364 41.7208C17.4869 41.3191 17.7186 39.8361 16.8381 39.0483L16.3746 38.6312H12.8062H9.23777L8.78978 39.0792Z" fill="white"/>
<path d="M24.0674 39.0792C23.6349 39.4654 23.5576 39.6354 23.5576 40.2378C23.5576 40.794 23.6503 41.0257 23.9902 41.3655L24.4072 41.7981L27.8367 41.8444C31.436 41.8907 31.9303 41.829 32.3629 41.1956C32.4864 41.0257 32.5946 40.5777 32.5946 40.2069C32.5946 39.6663 32.5019 39.45 32.1466 39.0792L31.6986 38.6313H28.1302H24.5617L24.0674 39.0792Z" fill="white"/>
<path d="M39.6083 38.7859C38.4806 39.2338 38.5269 41.2266 39.67 41.7055C39.979 41.8445 41.1376 41.8754 43.5474 41.8445L46.9923 41.7982L47.4403 41.2884C47.9192 40.7477 48.0119 40.1607 47.7029 39.481C47.3476 38.7086 46.9614 38.6314 43.3003 38.6468C41.4465 38.6468 39.7782 38.7086 39.6083 38.7859Z" fill="white"/>
<path d="M54.5618 39.0174C54.0057 39.4808 53.8358 40.176 54.1293 40.8711C54.5155 41.798 54.8862 41.8752 58.5782 41.8752C61.5751 41.8752 61.915 41.8443 62.3629 41.5663C63.2435 41.0411 63.3053 39.6971 62.4865 38.9711C62.1003 38.6467 61.9922 38.6312 58.5473 38.6312H55.0252L54.5618 39.0174Z" fill="white"/>
<path d="M62.1772 43.9762C56.7241 45.1966 52.4914 49.4602 51.3792 54.8823C51.0702 56.4117 51.0702 59.0069 51.3792 60.5362C52.2906 64.9697 55.3493 68.7699 59.4738 70.5618C61.5284 71.4578 63.1504 71.7359 65.6993 71.6586C67.5376 71.5814 68.1091 71.5041 69.2059 71.1488C71.5849 70.3765 73.0988 69.4959 74.8289 67.843C76.6209 66.1129 77.7177 64.3518 78.5673 61.8029C78.9844 60.5517 78.9998 60.3508 78.9998 57.7093C78.9998 54.9905 78.9998 54.8978 78.5055 53.4611C76.9762 48.904 73.5931 45.5982 69.0978 44.2543C67.3522 43.729 63.9073 43.59 62.1772 43.9762ZM68.449 47.4828C71.6467 48.5796 74.0565 50.9122 75.2769 54.1099C75.7403 55.3458 75.7712 55.4848 75.7712 57.7093C75.7712 59.9492 75.7403 60.0728 75.2615 61.3241C74.072 64.46 71.8166 66.6999 68.6807 67.8739C67.0432 68.4764 64.6179 68.6309 62.7951 68.2138C57.9136 67.1324 54.376 62.7144 54.376 57.7093C54.376 52.8278 57.6819 48.5642 62.4707 47.2666C64.0927 46.834 66.8424 46.9267 68.449 47.4828Z" fill="white"/>
<path d="M57.8827 50.2171C57.4347 50.5724 57.2185 51.3602 57.3884 52.0245C57.4965 52.4725 62.9187 58.08 64.0155 58.8833C64.3399 59.1305 64.8033 59.3313 65.0196 59.3313C65.2359 59.3313 66.4717 59.0532 67.7384 58.7134C70.4727 57.9719 70.828 57.7247 70.828 56.6125C70.828 56.01 70.7507 55.8401 70.3182 55.4539C69.6848 54.8823 69.2832 54.8823 67.2441 55.4539L65.6839 55.8864L62.9187 53.1213C61.4048 51.592 59.9836 50.248 59.7519 50.1244C59.1495 49.8155 58.3462 49.8618 57.8827 50.2171Z" fill="white"/>
<path d="M8.78978 50.3561C8.43448 50.7113 8.3418 50.9431 8.3418 51.4528C8.3418 52.9822 8.77433 53.1521 12.8989 53.1521C15.4478 53.1521 16.1738 53.1058 16.5291 52.9204C16.9926 52.6732 17.456 51.9781 17.456 51.5301C17.456 51.0512 16.9771 50.2634 16.5909 50.078C16.3438 49.9699 14.9998 49.9081 12.729 49.9081H9.23777L8.78978 50.3561Z" fill="white"/>
<path d="M24.2379 50.1398C23.2801 50.665 23.2801 52.148 24.2379 52.7968C24.7476 53.1367 24.8867 53.1521 27.9762 53.1521C29.7373 53.1521 31.3593 53.0903 31.5601 53.0131C32.6723 52.5805 32.9813 51.1902 32.1471 50.3561L31.6991 49.9081H28.1616C25.4273 49.9235 24.5468 49.9699 24.2379 50.1398Z" fill="white"/>
<path d="M39.2221 50.3561C38.5887 50.9895 38.5887 51.87 39.2221 52.5652L39.6701 53.075H43.3003C46.9305 53.075 46.9305 53.075 47.3322 52.7042C47.8265 52.2408 47.9964 51.4529 47.7338 50.8196C47.3631 49.9391 47.2395 49.9082 43.2849 49.9082H39.6701L39.2221 50.3561Z" fill="white"/>
</svg>
