<svg width="683" height="683" viewBox="0 0 683 683" fill="none" xmlns="http://www.w3.org/2000/svg">
<g clip-path="url(#clip0_235_3312)">
<path d="M330.421 6.10352e-05C501.638 6.10352e-05 640.434 138.562 640.434 309.484C640.434 480.409 501.638 618.969 330.421 618.969C159.206 618.969 20.4084 480.409 20.4084 309.484C20.4084 138.562 159.206 6.10352e-05 330.421 6.10352e-05Z" fill="#EEF2FA"/>
<path d="M341.5 669.806C530.104 669.806 683 672.761 683 676.403C683 680.047 530.104 683 341.5 683C152.895 683 0 680.047 0 676.403C0 672.761 152.895 669.806 341.5 669.806Z" fill="#2B3E4C"/>
<path d="M208.554 101.48H453.066" stroke="#2C4455" stroke-width="2.66667"/>
<path d="M474.057 141.257H409.333V262.528" stroke="#2C4455" stroke-width="2.66667"/>
<path d="M158.018 316.275C188.291 316.275 212.83 340.772 212.83 370.993C212.83 401.212 188.291 425.711 158.018 425.711C127.748 425.711 103.208 401.212 103.208 370.993C103.208 340.772 127.748 316.275 158.018 316.275Z" fill="#2C4455"/>
<path d="M516.623 161.436V315.693" stroke="#2C4455" stroke-width="2.66667"/>
<path d="M163.267 407.278H134.502C129.466 407.287 125.376 403.224 125.366 398.197C125.366 398.183 125.366 398.172 125.366 398.158V344.605H172.208V398.158C172.435 402.964 168.715 407.043 163.902 407.27C163.691 407.28 163.479 407.282 163.267 407.278Z" fill="white"/>
<path d="M573.961 46.5682C538.003 24.6423 519.344 62.0909 515.846 70.2403C512.347 62.0909 493.688 24.6423 457.731 46.5682C427.41 65.1954 428.381 132.137 515.846 176.377C603.31 131.943 604.476 65.0014 573.961 46.5682Z" fill="#2C4353"/>
<path d="M133.335 336.261H164.433C170.761 336.273 175.89 341.391 175.901 347.709V348.291H122.061V347.709C121.986 341.461 126.998 336.337 133.257 336.261C133.282 336.261 133.308 336.261 133.335 336.261Z" fill="#CDAA64"/>
<path d="M194.754 400.874C194.787 404.165 192.142 406.858 188.846 406.889C188.807 406.889 188.767 406.889 188.729 406.889H164.821C161.502 406.868 158.818 404.188 158.797 400.874C158.765 397.584 161.41 394.892 164.705 394.859C164.744 394.859 164.782 394.859 164.821 394.859H188.729C192.047 394.881 194.733 397.562 194.754 400.874Z" fill="#CDAA64"/>
<path d="M194.754 400.874C194.787 404.165 192.142 406.858 188.846 406.889C188.807 406.889 188.767 406.889 188.729 406.889H176.678V394.859H188.729C192.047 394.881 194.733 397.562 194.754 400.874Z" fill="white"/>
<path d="M131.974 361.097H157.826V393.889H131.974V361.097Z" fill="#2C4455"/>
<path d="M131.974 361.097H157.825V393.889H131.974V361.097Z" stroke="white" stroke-width="1.33333"/>
<path d="M160.546 33.9559C197.901 33.9559 228.185 64.1865 228.185 101.48C228.185 138.773 197.901 169.004 160.546 169.004C123.19 169.004 92.9059 138.773 92.9059 101.48C92.9059 64.1865 123.19 33.9559 160.546 33.9559Z" fill="#2C4455"/>
<path d="M200.002 72.9569L179.206 68.8822C178.956 66.6275 178.891 64.3573 179.011 62.091L200.974 71.9867C200.754 72.3981 200.416 72.7376 200.002 72.9569ZM180.37 75.2853C180.177 74.1211 179.982 73.1509 179.788 72.1808L195.532 74.8972C190.284 76.4495 183.675 75.6734 180.37 75.2853ZM174.929 101.674L159.38 86.1512C160.575 85.5516 161.808 85.0336 163.073 84.5989L175.511 99.3455L174.929 101.674ZM172.596 106.525L151.605 91.7782C152.762 90.581 154.069 89.5371 155.492 88.6736L173.568 104.778C173.18 105.361 172.985 105.943 172.596 106.525ZM169.098 110.794L145.774 100.898C146.508 98.8469 147.487 96.8929 148.69 95.0768L170.07 109.629C169.875 110.211 169.487 110.405 169.098 110.794ZM163.656 114.868L144.413 110.599C144.433 108.589 144.563 106.581 144.802 104.584L165.6 113.704C164.978 114.135 164.329 114.525 163.656 114.868ZM145.774 119.719C145.385 117.973 144.997 116.226 144.802 114.674L158.018 117.585C154.058 118.867 149.935 119.587 145.774 119.719ZM140.721 143.973L122.84 127.48C124.728 126.776 126.68 126.256 128.671 125.928L141.109 141.451C141.089 142.305 140.96 143.153 140.721 143.973ZM202.723 70.0464L179.982 57.8222C180.954 54.5237 182.509 53.7475 182.509 53.7475L176.873 48.8967C172.527 56.8618 171.614 66.2472 174.347 74.8972C176.233 81.05 177.022 87.4862 176.678 93.9126L168.516 83.0467C171.042 82.4646 172.596 82.2705 172.596 82.2705L171.819 75.6734C161.175 75.8461 151.121 80.5824 144.22 88.6736C131.974 104.196 139.361 123.6 139.361 123.6C141.246 127.665 142.114 132.126 141.887 136.6L133.723 125.346H137.028L135.473 118.749C127.577 118.074 119.721 120.433 113.509 125.346L118.369 130.973C118.715 130.486 119.107 130.032 119.535 129.615L140.915 149.406L144.413 152.899C154.131 144.749 147.718 126.122 147.718 126.122C154.174 125.608 160.489 123.967 166.377 121.271C190.868 105.749 182.703 83.0467 182.703 83.0467C182.729 82.8332 182.658 82.6198 182.509 82.4646C191.966 84.3215 201.74 81.5022 208.748 74.8972L202.723 70.0464Z" fill="#EEF2FA"/>
<path d="M579.986 121.271H570.462L566.964 132.137L563.271 108.077L554.913 147.66L542.863 78.1957L532.172 121.271H516.623L512.93 132.137L506.905 106.913L498.547 147.66L485.33 78.1957L474.64 122.435H453.066" stroke="#CDAA64" stroke-width="2.66667"/>
<path d="M516.623 305.604C548.075 305.604 573.572 331.057 573.572 362.456C573.572 393.854 548.075 419.308 516.623 419.308C485.171 419.308 459.674 393.854 459.674 362.456C459.674 331.057 485.171 305.604 516.623 305.604Z" fill="#2C4455"/>
<path d="M500.88 401.845H500.102C495.397 401.802 491.593 398.005 491.55 393.307V334.903H509.432V393.307C509.389 398.005 505.585 401.802 500.88 401.845Z" fill="white"/>
<path d="M500.685 397.576H500.102C496.988 397.576 494.466 395.057 494.466 391.949V353.336H506.516V391.949C506.355 395.061 503.807 397.52 500.685 397.576Z" fill="#CDAA64"/>
<path d="M487.274 329.082H513.708V338.201H487.274V329.082Z" fill="white"/>
<path d="M533.144 401.845H532.367C527.661 401.802 523.856 398.005 523.815 393.307V334.903H541.696V393.307C541.655 398.005 537.85 401.802 533.144 401.845Z" fill="white"/>
<path d="M532.95 397.576H532.367C529.255 397.576 526.73 395.057 526.73 391.949V366.53H538.781V391.949C538.75 395.088 536.174 397.609 533.03 397.576C533.004 397.576 532.977 397.576 532.95 397.576Z" fill="#2C4455"/>
<path d="M532.95 397.576H532.367C529.255 397.576 526.73 395.057 526.73 391.949V366.53H538.781V391.949C538.75 395.088 536.174 397.609 533.03 397.576C533.004 397.576 532.977 397.576 532.95 397.576Z" stroke="white" stroke-width="1.33333"/>
<path d="M519.539 329.082H545.972V338.201H519.539V329.082Z" fill="white"/>
<path d="M158.213 315.693V161.436" stroke="#2C4455" stroke-width="2.66667"/>
<path d="M332.948 626.73H358.215V646.134H332.948V626.73Z" fill="#CDAA64"/>
<path d="M331.879 634.491H362.297L373.765 447.617L370.946 306.574L303.793 315.247L317.36 461.626L331.879 634.491Z" fill="#151413"/>
<path d="M302.646 126.122C301.286 123.464 299.906 102.838 299.906 102.838L332.384 104.177L338.779 118.807L302.646 126.122Z" fill="#444256"/>
<path d="M255.202 626.73H280.469V646.134H255.202V626.73Z" fill="#CDAA64"/>
<path d="M332.015 115.12C332.248 126.141 332.715 135.824 332.715 135.824L301.849 122.785C303.793 105.904 309.741 75.7508 309.741 73.7328L332.948 85.3749C332.205 92.2495 331.894 99.1649 332.015 106.078V115.12Z" fill="#CDAA64"/>
<path d="M362.55 69.0761C362.55 69.0761 339.226 144.497 308.127 81.8241C308.127 81.8241 295.241 52.0787 313.842 35.0619C313.842 35.0619 339.381 23.4198 359.906 39.7575C359.926 39.5441 367.078 50.7205 362.55 69.0761Z" fill="#CDAA64"/>
<path d="M360.159 182.392L422.356 243.552L418.138 250.304L364.61 230.959L360.159 182.392Z" fill="#939BC2"/>
<path d="M332.948 316.276L313.686 451.323L284.065 634.491H251.314L258.778 474.607L261.674 316.276H332.948Z" fill="#444256"/>
<path d="M304.648 325.977H358.215L339.42 117.488L335.183 110.599C335.183 110.599 323.677 135.3 301.83 110.599L294.055 117.488L304.648 325.977Z" fill="#2B3F4E"/>
<path d="M325.173 405.531L243.54 397.304L251.003 336.979C253.414 320.952 254.385 303.353 255.105 288.005C255.338 278.885 255.571 270.192 255.571 263.304C255.571 251.507 255.338 243.707 255.338 243.707C254.385 233.016 253.647 223.682 253.18 215.669C251.489 181.17 254.133 170.032 255.124 167.587C255.25 167.38 255.33 167.149 255.357 166.908C258.253 132.642 291.004 110.638 291.004 110.638L317.729 188.776L319.42 240.855L319.887 255.543L320.139 260.433L320.858 283.154L325.173 405.531Z" fill="#BAC3E8"/>
<path d="M350.208 405.531L344.124 158.06L342.666 118.361C342.666 118.361 360.645 127.888 366.729 155.227C366.729 155.227 372.793 188.058 375.708 270.095V405.376H350.208V405.531Z" fill="#BAC3E8"/>
<path d="M344.532 184.333L332.948 106.719L344.532 118.322V141.742L350.441 145.972L344.532 184.333Z" fill="#E6EBF8"/>
<path d="M299.051 102.838C300.489 104.177 317.399 188.213 317.399 188.213L292.384 152.724L295.241 144.536L280.469 115.916L299.051 102.838Z" fill="#E6EBF8"/>
<path d="M384.513 31.0454C378.352 8.01357 331.121 0.194008 320.372 12.0495C323.305 6.80087 328.402 3.1045 334.308 1.9403C334.308 1.9403 316.816 1.70744 312.384 16.4734C302.18 17.366 284.376 24.9721 306.922 73.7329L313.336 63.2163C310.95 62.4615 308.975 60.7656 307.875 58.5207C305.931 53.1653 308.827 43.5412 317.846 49.3622L318.079 49.1294C318.625 51.6305 318.944 54.1762 319.031 56.7355C319.031 56.7355 320.975 61.4311 321.15 60.0923C322.161 54.4789 325.762 49.6688 330.868 47.1114C336.699 50.022 359.109 59.4132 375.728 52.4862C375.728 52.4862 359.343 53.1653 345.815 48.2369C348.439 48.6831 351.277 49.3622 354.6 50.022C354.386 49.5757 391.646 56.7355 384.513 31.0454Z" fill="#181D3C"/>
<path d="M290.246 360.903H288.186C277.735 361.187 269.033 352.954 268.751 342.521C268.751 342.505 268.749 342.488 268.749 342.47V322.096H309.566V342.47C309.311 352.878 300.672 361.119 290.246 360.903Z" fill="#E6EBF8"/>
<path d="M254.619 646.134H279.05C279.05 646.134 291.859 658.202 304.901 661.23C317.943 664.256 319.342 673.298 319.342 673.298H247.427C248.551 663.956 250.97 654.813 254.619 646.134Z" fill="#444256"/>
<path d="M334.153 646.134H358.643C358.643 646.134 371.491 658.202 384.552 661.23C397.613 664.256 399.032 673.298 399.032 673.298H327.117C327.857 663.903 330.238 654.71 334.153 646.134Z" fill="#151413"/>
<path d="M410.539 192.094L490.384 198.128L415.223 250.304H354.328L410.539 192.094Z" fill="#444256"/>
<path d="M319.342 282.611L268.224 290.876C263.548 291.585 258.79 290.289 255.124 287.306C255.357 278.128 255.591 269.397 255.591 262.47L318.565 260.006L319.342 282.611Z" fill="#9CA6DB"/>
<path d="M392.618 238.235L370.441 244.91C372.113 244.483 384.746 241.902 391.666 242.543C392.618 242.543 392.618 243.843 391.666 244.056L370.441 247.937C374.482 247.345 378.591 247.417 382.608 248.15C383.086 248.222 383.415 248.666 383.345 249.144C383.287 249.522 382.987 249.819 382.608 249.877L358.041 254.398L352.54 255.485L344.027 258.492L339.479 260.006L333.045 245.337L347.603 242.116L352.598 241.029L362.317 232.201L370.422 230.047C371.374 229.814 371.84 230.9 371.374 231.327L365.64 236.508C366.359 236.081 379.712 229.6 385.213 228.96C385.913 228.96 386.165 229.6 385.679 230.047L368.983 242.329C369.936 241.902 385.446 234.995 393.085 236.935C393.298 236.722 393.298 237.808 392.618 238.235Z" fill="#CDAA64"/>
<path d="M319.342 255.621L278.526 258.065L282.763 134.33C282.763 134.33 295.746 122.067 294.425 226.399C294.425 232.88 298.448 243.862 318.74 240.893L319.342 255.621Z" fill="#9CA6DB"/>
<path d="M320.781 283.29L346.554 277.488L346.068 261.946L319.342 266.351L320.781 283.29Z" fill="#1D2A33"/>
<path d="M356.272 255.931L351.452 257.056L343.93 260.006L342.666 244.366L347.273 242.543L356.272 255.931Z" fill="#CDAA64"/>
<path d="M406.224 250.905C406.224 250.905 412.618 257.464 417.536 255.873C417.536 255.873 432.074 251.817 432.074 242.562L423.211 233.074C422.725 232.627 421.734 232.841 421.734 233.52C421.849 236.877 423.159 240.082 425.427 242.562L414.834 234.199C414.51 233.935 414.031 233.988 413.769 234.312C413.685 234.415 413.631 234.537 413.61 234.665C413.61 236.916 414.581 241.65 420.51 247.083L408.167 238.662C407.839 238.402 407.363 238.456 407.102 238.784C406.978 238.941 406.92 239.141 406.943 239.341C406.943 241.592 408.42 246.346 415.553 251.759L406.224 246.171C405.759 245.95 405.203 246.15 404.98 246.615V246.617C404.593 248.166 405.067 249.803 406.224 250.905Z" fill="#CDAA64"/>
<path d="M266.281 136.425C266.281 136.425 287.466 115.218 290.557 150.008C290.557 150.008 291.276 177.852 288.186 224.692C288.186 224.692 288.186 251.856 322.219 242.814L346.515 238.41V265.575L276.543 280.612C276.543 280.612 257.107 288.121 252.267 258.065C252.5 258.065 239.653 167.354 266.281 136.425Z" fill="#C2BBE3"/>
<path d="M332.948 114.48C316.466 103.246 315.455 93.1365 315.455 93.1365C319.892 98.9342 325.996 103.244 332.948 105.496V114.48Z" fill="#CDAA64"/>
</g>
<defs>
<clipPath id="clip0_235_3312">
<rect width="683" height="683" fill="white"/>
</clipPath>
</defs>
</svg>
