<svg width="90" height="90" viewBox="0 0 90 90" fill="none" xmlns="http://www.w3.org/2000/svg">
<path d="M45.457 9.52738C41.3789 9.87894 37.1777 11.0567 33.2754 12.92C23.8535 17.4375 17.0332 25.6465 14.4316 35.6309L13.9746 37.4239L12.2168 35.1211C10.0723 32.291 9.80859 32.0801 8.4375 32.0801C6.71484 32.0801 5.625 33.2051 5.625 34.9981V36.0352L9.82617 41.625C13.0605 45.9492 14.1504 47.2852 14.6426 47.5137C15.3457 47.8653 16.7168 47.9004 17.2793 47.6016C18.0703 47.1797 28.0898 39.5684 28.4414 39.1114C29.2852 38.0567 29.1445 36.545 28.125 35.4551C27.4922 34.7696 27.4043 34.7344 26.2441 34.6641L25.0312 34.5938L22.4121 36.545C20.9707 37.6172 19.7754 38.461 19.7402 38.4258C19.6172 38.3203 20.6191 35.1739 21.3223 33.3985C22.8164 29.7071 25.0312 26.4727 28.0723 23.5371C31.8516 19.8985 36.2637 17.4551 41.4141 16.1895C44.4727 15.416 46.4766 15.2227 50.0625 15.3457C53.5254 15.4512 55.4766 15.7852 58.5176 16.8047C67.7461 19.8809 75.0586 27.7207 77.6074 37.2832C78.9082 42.2051 78.9082 47.7949 77.6074 52.7344C76.2363 57.8672 73.6172 62.3321 69.7148 66.1817C61.6289 74.1621 50.1504 76.834 39.2871 73.2657C37.0723 72.5449 33.4336 70.6992 31.5527 69.3457C28.2656 67.0078 25.4355 63.9844 23.3438 60.5742C22.7285 59.5899 22.043 58.711 21.7441 58.5352C20.4785 57.7617 19.0371 57.9551 18.0527 59.0449C16.9102 60.3106 16.9805 61.3653 18.2812 63.5449C20.25 66.7969 23.2383 70.2246 26.2617 72.668C33.3281 78.3809 42.6094 81.2637 51.5039 80.5254C61.3828 79.6817 69.9785 75.252 76.2539 67.7637C80.4199 62.8067 83.1094 56.6895 84.1113 50.0098C84.4629 47.6895 84.4629 42.3106 84.1113 39.9903C83.1094 33.3106 80.4199 27.1934 76.2539 22.2364C72.8438 18.1582 69.0645 15.2227 64.3008 12.92C58.3945 10.0723 52.0664 8.92972 45.457 9.52738Z" fill="white"/>
<path d="M46.916 29.004C46.1074 29.2325 45.5449 29.7247 45.1758 30.4806C44.8418 31.1661 44.8242 31.5353 44.8242 35.8771C44.8242 41.045 44.9648 42.0294 45.9141 43.8048C47.127 46.0899 49.6582 47.8478 52.1367 48.129C52.8047 48.1993 55.4062 48.2169 57.9199 48.1642C62.3848 48.0763 62.5078 48.0587 63.0879 47.6544C63.7383 47.1798 64.3184 46.0724 64.3359 45.2638C64.3359 44.3146 63.6328 43.2071 62.7539 42.7501C61.9805 42.3458 61.8926 42.3282 57.6562 42.4161C52.4883 42.504 51.9258 42.381 51.0469 41.045C50.748 40.588 50.7129 40.0782 50.625 35.5782C50.5195 29.9356 50.5371 29.9884 49.043 29.2149C48.2344 28.8106 47.707 28.7579 46.916 29.004Z" fill="white"/>
</svg>
