<svg width="53" height="53" viewBox="0 0 53 53" fill="none" xmlns="http://www.w3.org/2000/svg">
<rect width="53" height="53" fill="#29353D"/>
<path d="M25.7547 13.074C11.9975 20.258 0.641797 26.2309 0.517578 26.3447C0.155273 26.6656 0 27.0693 0 27.649C0 28.2908 0.279492 28.8084 0.755664 29.0568C0.931641 29.15 4.19238 30.2887 8.00176 31.593C13.7986 33.5701 14.958 33.9324 15.0926 33.8289C15.2271 33.7254 31.0236 20.227 42.0791 10.776L43.8389 9.26466L43.0521 10.1963C39.6982 14.1816 21.5209 36.158 21.5623 36.1891C21.5934 36.2201 39.4188 42.3379 44.3564 44.0149C45.4434 44.3772 46.2715 44.1598 46.727 43.3731C46.8822 43.1143 47.5861 38.5596 49.9566 22.6389C51.6336 11.4074 53 1.9668 53 1.65626C53 0.621101 52.3789 7.43965e-06 51.3438 7.43965e-06C50.7951 0.010359 50.0705 0.372664 25.7547 13.074Z" fill="#CDAA64"/>
<path d="M19.2539 44.1184C19.2539 49.4287 19.2539 49.4391 19.492 49.8945C19.7818 50.4742 20.1441 50.733 20.7342 50.7951C21.3139 50.8676 21.8314 50.702 22.1834 50.3293C22.7113 49.7807 28.3633 41.9859 28.2908 41.9238C28.2391 41.8824 26.2516 41.1889 23.8604 40.3711C21.4691 39.5533 19.4506 38.8701 19.3885 38.8391C19.285 38.808 19.2539 39.9053 19.2539 44.1184Z" fill="#CDAA64"/>
</svg>
