<svg width="67" height="67" viewBox="0 0 67 67" fill="none" xmlns="http://www.w3.org/2000/svg">
<path d="M6.47937 0.886711C4.44441 1.30448 2.53074 2.733 1.61433 4.55234C0.846168 6.07519 0.886597 4.49843 0.886597 32.5701C0.886597 58.0678 0.886597 58.4182 1.15613 59.2807C1.70867 61.0865 3.11023 62.5824 4.90261 63.3101L5.67078 63.6201L25.4139 63.6605C40.1977 63.6875 45.3458 63.6605 45.8983 63.5393C47.4346 63.2158 48.971 62.1646 49.8065 60.8574C50.3052 60.0758 50.7499 58.7551 50.7499 58.0408C50.7499 57.5557 50.7499 57.5422 51.545 57.34L52.3401 57.1379L55.1298 61.0326C58.0811 65.1564 58.5124 65.6012 59.8466 66.0728C60.2643 66.2211 60.8977 66.3154 61.5311 66.3019C63.31 66.3019 64.752 65.399 65.6145 63.7549C66.0188 63.0002 66.0458 62.8519 66.0458 61.5986C66.0458 60.4127 66.0054 60.1566 65.6954 59.5098C65.4932 59.1055 64.1995 57.34 62.8114 55.6016C61.4233 53.8631 60.1296 52.2324 59.9544 52.0033L59.6175 51.5586L60.2239 50.3861C62.5554 45.8445 62.2319 40.5348 59.3749 36.4109C58.5663 35.2519 56.8278 33.5269 55.6958 32.7857C54.6042 32.058 53.1218 31.3976 51.8415 31.0473L50.7499 30.7643V28.0285V25.2928L55.1028 25.2389C58.2563 25.2119 59.577 25.1445 59.9409 25.0098C60.8843 24.6728 61.6929 23.9182 62.205 22.9344L62.6766 22.0045V14.3768C62.6766 5.92695 62.6901 6.08867 61.7737 4.35019C61.2481 3.37988 59.7927 1.97831 58.7954 1.50663C57.1108 0.711513 58.5663 0.751942 31.6805 0.765419C18.1096 0.778896 6.77586 0.832805 6.47937 0.886711ZM49.8739 3.81113C49.537 4.30976 49.1192 5.11835 48.9575 5.60351C48.661 6.47948 48.661 6.51992 48.6206 18.5006L48.5802 30.5351H47.5829C43.2973 30.5351 38.7557 33.2439 36.4243 37.206C35.6831 38.4594 35.0497 40.1574 34.7802 41.6533C34.4432 43.4457 34.5511 46.2219 35.0362 47.8391C35.7235 50.1435 36.8016 51.9629 38.5132 53.6879C40.8311 56.0328 43.9173 57.4209 47.3538 57.6904C48.7553 57.7982 48.7553 57.7982 48.378 58.8898C48.0815 59.7523 47.0303 60.8709 46.1409 61.2752L45.4266 61.5986H25.8182H6.20984L5.45515 61.2482C4.53875 60.817 3.86492 60.1566 3.43367 59.2941L3.11023 58.6338L3.0698 32.8935C3.04285 4.47148 2.97546 6.45253 3.89187 5.11835C4.49832 4.24237 5.48211 3.50116 6.47937 3.17773C7.26101 2.93515 7.94831 2.92167 28.8774 2.92167L50.4804 2.9082L49.8739 3.81113ZM51.2216 33.1631C55.1837 34.1603 58.0003 37.0039 59.1323 41.1143C59.5636 42.691 59.5636 45.6424 59.1323 47.2191C57.9733 51.4912 55.0759 54.3348 50.9251 55.2781C49.6583 55.5746 47.1382 55.6016 45.9657 55.3455C42.4887 54.5908 39.5374 52.2998 37.9337 49.1059C37.0712 47.3809 36.8151 46.2623 36.8151 44.1465C36.8016 41.9363 37.0173 41.0064 37.9606 39.0928C39.5913 35.7641 42.4753 33.5943 46.2083 32.8801C47.502 32.6375 49.6313 32.7588 51.2216 33.1631Z" fill="white"/>
<path d="M9.85838 7.16566C9.06706 7.47956 9 7.61034 9 8.94438C9 10.261 9.08047 10.4528 9.77791 10.7929C10.14 10.9672 10.3815 10.9672 25.8323 10.9934C40.5724 11.0108 41.5515 11.0021 41.9941 10.8626C42.8256 10.5836 43 10.261 43 8.96182C43 7.69754 42.8927 7.48827 42.088 7.17438C41.6722 7.00872 41.2832 7 25.9665 7C10.757 7 10.2607 7.00872 9.85838 7.16566Z" fill="white"/>
<path d="M8.27182 18.4061C8.00228 18.5544 7.63842 18.8643 7.46322 19.1069C7.15326 19.5382 7.15326 19.6325 7.11283 23.1634C7.0724 26.6942 7.08588 26.7751 7.38236 27.3141C7.54408 27.6106 7.89447 27.988 8.164 28.1497C8.60873 28.4327 8.7974 28.4462 12.2609 28.4866C16.3443 28.5405 16.7755 28.4596 17.3954 27.651C17.921 26.9503 18.0288 26.0878 17.9749 22.7995L17.9345 19.8077L17.5572 19.2417C16.8699 18.177 16.6408 18.1366 12.4495 18.1366C9.08041 18.1501 8.73002 18.1635 8.27182 18.4061ZM14.5788 21.344C14.7406 21.4384 15.037 21.9639 15.037 22.1257C15.037 22.1796 14.3228 22.9343 13.4603 23.8237C12.2878 24.9962 11.8027 25.4139 11.5466 25.4139C11.1019 25.4139 9.51166 23.8372 9.51166 23.3925C9.51166 22.9882 9.87553 22.5839 10.2394 22.5839C10.3876 22.5839 10.738 22.813 11.021 23.0825L11.5331 23.5811L12.7326 22.4087C13.8511 21.3171 14.215 21.1014 14.5788 21.344Z" fill="white"/>
<path d="M23.0556 19.6191C22.3548 19.9021 22.1526 20.9398 22.7187 21.398C23.0017 21.6271 23.6485 21.6406 33.5538 21.6406H44.106L44.389 21.3307C44.6854 21.0207 44.7663 20.5221 44.6046 20.0908C44.362 19.4844 44.3755 19.4844 33.5403 19.4979C27.9206 19.4979 23.2038 19.5518 23.0556 19.6191Z" fill="white"/>
<path d="M22.7725 25.1984C22.476 25.441 22.3952 25.6297 22.4086 26.007C22.4221 26.29 22.5299 26.627 22.6647 26.7752C22.8938 27.0178 23.1498 27.0312 30.4676 27.0312H38.0414L38.3245 26.7213C38.6479 26.3709 38.7018 25.7375 38.4457 25.4006C38.0549 24.8885 37.8797 24.875 30.4137 24.875H23.1364L22.7725 25.1984Z" fill="white"/>
<path d="M8.29883 32.7184C7.89453 32.9205 7.58457 33.217 7.3959 33.5674C7.09941 34.093 7.08594 34.2277 7.08594 37.6104C7.08594 40.993 7.09941 41.1277 7.3959 41.6398C7.58457 41.9768 7.92148 42.2867 8.28535 42.4889C8.86484 42.7854 8.97266 42.7988 12.4631 42.7988C15.9266 42.7988 16.0748 42.7854 16.6543 42.4889C17.8941 41.8689 18.0559 41.2086 17.975 36.9365C17.9346 34.7533 17.8941 34.1604 17.7055 33.8369C17.4225 33.2979 16.816 32.7453 16.3443 32.5701C16.1152 32.4758 14.5924 32.4219 12.4227 32.4219C9.02656 32.4219 8.87832 32.4354 8.29883 32.7184ZM14.498 35.6562C14.6463 35.7371 14.8215 35.9123 14.9023 36.0605C15.118 36.4648 14.8215 36.9096 13.3121 38.3785C11.6275 40.0496 11.5197 40.0631 10.3473 38.8367C9.43086 37.8799 9.29609 37.4352 9.8082 37.0848C10.2395 36.7748 10.3877 36.8152 11.0076 37.3678L11.5467 37.8529L12.5844 36.8422C13.4604 35.9797 13.9994 35.5484 14.2016 35.5215C14.2285 35.5215 14.3633 35.5889 14.498 35.6562Z" fill="white"/>
<path d="M22.9881 34.0795C22.7725 34.1873 22.6108 34.4299 22.5299 34.7533C22.4221 35.1711 22.4491 35.3193 22.6782 35.6293L22.9477 35.9932L28.5 36.0336L34.0524 36.0605L34.3758 35.7371C34.9014 35.2115 34.7397 34.349 34.0793 34.0525C33.5942 33.8234 23.4328 33.8504 22.9881 34.0795Z" fill="white"/>
<path d="M22.7726 39.6049C22.301 40.0227 22.274 40.6426 22.7187 41.1143L23.0287 41.4512H27.1121H31.1955L31.465 41.1008C31.8154 40.6561 31.8289 40.09 31.492 39.6857L31.2359 39.3623L27.193 39.3219L23.15 39.2814L22.7726 39.6049Z" fill="white"/>
<path d="M8.29883 47.1383C7.89453 47.3404 7.58457 47.6369 7.3959 47.9873C7.09941 48.5129 7.08594 48.6611 7.08594 52.0168C7.08594 55.4937 7.08594 55.5072 7.42285 56.0867C7.63848 56.4641 7.94844 56.7471 8.33926 56.9357C8.8918 57.2053 9.14785 57.2188 12.49 57.2188C15.9266 57.2188 16.0748 57.2053 16.6543 56.9223C17.9076 56.2889 18.0559 55.6285 17.9885 51.2621L17.9346 48.5129L17.5572 47.9334C16.8699 46.9092 16.6004 46.8418 12.4766 46.8418C9.02656 46.8418 8.87832 46.8553 8.29883 47.1383ZM14.498 50.0762C14.6463 50.157 14.8215 50.3322 14.9023 50.4805C15.118 50.8848 14.8215 51.3295 13.3121 52.7984C11.641 54.4426 11.5602 54.4561 10.3607 53.2701C9.45781 52.3672 9.32305 51.9898 9.74082 51.5316C10.0777 51.1678 10.4551 51.2352 11.0211 51.7877L11.5332 52.2863L12.6518 51.1947C13.5816 50.2783 13.8916 50.0357 14.2016 49.9549C14.2285 49.9414 14.3633 50.0088 14.498 50.0762Z" fill="white"/>
<path d="M23.177 48.3242C22.7996 48.4725 22.4492 48.9711 22.4492 49.3484C22.4492 49.5102 22.5705 49.7932 22.7322 49.9953L23.0018 50.3457H28.5811H34.1604L34.4299 49.9953C34.8072 49.5236 34.7803 49.0924 34.3895 48.6342L34.066 48.2568L28.7563 48.2299C25.8453 48.2164 23.3252 48.2568 23.177 48.3242Z" fill="white"/>
<path d="M23.0556 53.7148C22.3953 53.9709 22.1797 54.9412 22.6648 55.4803C22.8804 55.7229 23.1095 55.7363 27.0447 55.7363C30.6295 55.7363 31.2224 55.7094 31.3976 55.5207C31.9097 55.0086 31.7615 54.0248 31.1281 53.7283C30.7373 53.5531 23.4869 53.5262 23.0556 53.7148Z" fill="white"/>
</svg>
