<svg width="524" height="390" viewBox="0 0 524 390" fill="none" xmlns="http://www.w3.org/2000/svg">
<path d="M245.83 357.067L245.821 357.059C188.351 307.352 141.157 266.477 108.26 228.088C75.4195 189.766 57.5534 154.735 57.5534 116.826C57.5534 54.8861 108.391 6.18431 173.853 6.18431C206.739 6.18431 238.382 29.0524 262.12 53.6716C267.968 59.737 277.687 59.7154 283.543 53.7267C307.54 29.1821 341.292 6.18431 374.281 6.18431C439.743 6.18431 490.58 54.8861 490.58 116.826C490.58 154.735 472.714 189.766 439.874 228.088C406.976 266.477 359.783 307.352 302.312 357.059L302.303 357.067C286.106 371.131 262.028 371.131 245.83 357.067Z" stroke="#CDAA64" stroke-width="12.3686"/>
<path d="M10 247.73H146.725C147.848 247.73 148.859 247.049 149.281 246.008L178.349 174.265C179.29 171.941 182.593 171.977 183.483 174.321L224.836 283.175C225.786 285.678 229.387 285.494 230.078 282.908L273.63 119.899C274.347 117.216 278.133 117.155 278.935 119.815L328.334 283.646C329.087 286.141 332.561 286.297 333.533 283.879L377.313 175.038C378.285 172.62 381.759 172.775 382.512 175.27L403.783 245.769C404.134 246.933 405.207 247.73 406.423 247.73H514" stroke="#CDAA64" stroke-width="18.5529" stroke-linecap="round"/>
</svg>
